# 3ds Max Wavefront OBJ Exporter v0.97b - (c)2007 guruware
# File Created: 15.03.2012 16:38:27

mtllib Duty Calls TCBTS - Small Meaningless Stick.mtl

#
# object Stick
#

v  0.3926 0.8679 -19.9040
v  0.7663 0.7770 -21.5827
v  0.4065 0.0000 -20.0513
v  -4.2669 -0.0000 22.4337
v  -3.3297 -0.8940 18.2665
v  -3.8990 -0.9027 22.5001
v  -3.6335 -0.0000 23.2787
v  -3.2493 -0.9050 23.3439
v  -3.8989 0.9027 22.5001
v  -0.5393 -1.2469 14.1476
v  -0.8848 -1.2567 15.3566
v  -1.6295 -0.8864 14.6010
v  -2.2618 -1.2674 18.6855
v  -2.4578 -1.2798 22.5304
v  -1.6485 -1.2798 28.3335
v  -2.7615 -0.9050 28.1488
v  -3.2226 -0.0000 28.0723
v  -0.6118 -1.2284 11.5622
v  -1.5688 -0.8713 12.0974
v  -2.3571 -0.8562 9.5899
v  -2.7071 0.0000 10.2978
v  -1.5335 -1.2099 8.9726
v  -0.8386 0.8499 8.2338
v  0.0937 0.7836 11.3869
v  -0.5010 0.0000 8.3379
v  -1.5335 1.2099 8.9726
v  -0.6118 1.2284 11.5622
v  -2.3571 0.8562 9.5899
v  -1.5688 0.8713 12.0974
v  -1.9245 0.0000 12.4185
v  0.8144 -0.8052 3.3345
v  -0.8386 -0.8499 8.2338
v  0.0937 -0.7836 11.3869
v  0.4603 -0.0000 11.4047
v  0.5723 -0.0000 14.4666
v  0.1768 0.7174 14.5350
v  0.1768 -0.7174 14.5350
v  -1.5532 -1.1893 7.0458
v  0.3553 -1.1231 2.1358
v  0.7444 -0.8825 -15.6631
v  0.5413 -0.7123 -8.4425
v  -0.1591 -1.0105 -8.3633
v  0.6785 -1.0722 -0.9340
v  1.7345 -0.7555 -0.5092
v  1.7045 -0.7911 2.9763
v  1.1344 0.0000 3.4449
v  0.8144 0.8052 3.3345
v  -1.5531 1.1893 7.0458
v  -0.7183 0.0000 1.7642
v  -2.1929 -0.8239 6.8062
v  -2.5925 -0.0112 6.9057
v  -2.3043 0.8510 6.8870
v  -0.4046 0.7925 1.8734
v  0.3553 1.1231 2.1358
v  1.7045 0.7911 2.9763
v  2.0215 0.0000 3.0888
v  1.7345 0.7555 -0.5092
v  0.6785 1.0722 -0.9340
v  0.5413 0.7123 -8.4425
v  0.8299 0.0000 -8.4732
v  2.0386 0.0000 -0.4614
v  1.3588 -0.6236 -15.7467
v  1.1473 -0.3068 -19.8994
v  0.5457 -0.8675 -20.3999
v  1.1073 -0.3066 -21.3906
v  0.8343 -0.7480 -21.3913
v  0.9978 0.6132 -21.5312
v  0.7973 0.1067 -21.6532
v  1.0209 0.6136 -19.9129
v  1.6132 0.0000 -15.7814
v  1.3589 0.6236 -15.7467
v  0.7444 0.8825 -15.6631
v  -0.1591 1.0105 -8.3633
v  -0.1509 0.7605 -0.9970
v  -0.4554 0.0000 -1.0416
v  -0.1509 -0.7605 -0.9970
v  -0.4046 -0.7925 1.8734
v  -1.0727 0.7217 -8.1845
v  -1.3662 0.0000 -8.1508
v  -1.0727 -0.7217 -8.1845
v  -0.5519 -0.7072 -9.0992
v  -0.8408 0.0000 -9.0697
v  -0.4522 0.0000 -20.0679
v  -0.0594 -0.6132 -22.5040
v  -0.1995 -0.6136 -20.0410
v  0.1293 -0.6244 -15.5798
v  -0.1257 0.0000 -15.5453
v  -0.5519 0.7072 -9.0992
v  0.2361 -0.6934 -22.4058
v  -0.1995 0.6136 -20.0410
v  0.1293 0.6244 -15.5798
v  0.2641 0.7687 -22.6942
v  -0.0594 0.6132 -22.8844
v  -0.2784 0.0000 -22.8920
v  0.2141 -0.0795 -22.6024
v  -4.7806 -0.5436 9.7326
v  -2.3244 -1.0688 8.1222
v  -4.1605 -0.7035 10.0507
v  -3.6750 -0.5610 10.5467
v  -4.2402 -0.0069 10.2685
v  -4.9286 -0.0031 9.8759
v  -4.8098 0.5700 9.7923
v  -2.4863 1.0943 8.1918
v  -4.2127 0.7289 10.1175
v  -3.6750 0.5697 10.5467
v  -3.6551 0.0043 10.9210
v  -0.1352 -0.7231 15.5485
v  1.8743 -0.3689 16.7836
v  0.0579 -0.0000 16.0016
v  2.2461 -0.3660 16.3697
v  1.9018 -0.0000 16.9702
v  1.8993 0.3689 16.7719
v  -0.1352 0.7231 15.5485
v  2.2211 0.3660 16.3814
v  2.4652 -0.0000 16.3663
v  -1.4468 0.8075 18.8631
v  -2.4578 1.2798 22.5304
v  -1.5672 0.9050 22.6914
v  -1.1721 -0.0000 19.1369
v  -1.1983 -0.0000 22.7581
v  -1.5672 -0.9050 22.6914
v  -1.4468 -0.8075 18.8631
v  -3.2493 0.9049 23.3439
v  -2.7615 0.9049 28.1488
v  -1.6484 1.2798 28.3335
v  -0.5353 0.9049 28.5182
v  -0.0742 -0.0000 28.5947
v  -0.5353 -0.9050 28.5182
v  -2.5287 1.1741 18.5808
v  -0.8848 1.2567 15.3566
v  -0.5393 1.2469 14.1476
v  -3.3297 0.8940 18.2665
v  -1.6295 0.8864 14.6010
v  -1.9909 -0.0000 14.5357
v  -3.6941 -0.0000 18.2007
v  -1.6484 -0.0000 28.3335
# 136 vertices

vn -0.5999 0.7805 -0.1759
vn -0.6544 0.5140 -0.5546
vn -0.1049 0.1775 -0.9785
vn -0.9760 0.0000 0.2180
vn -0.5438 -0.8209 -0.1745
vn -0.7526 -0.5416 0.3747
vn -0.9189 0.0104 0.3944
vn -0.5049 -0.8370 0.2108
vn -0.6988 0.6845 0.2077
vn -0.0422 -0.9991 0.0043
vn -0.0309 -0.9991 -0.0293
vn -0.6427 -0.7495 -0.1590
vn 0.0963 -0.9952 0.0145
vn 0.0586 -0.9982 0.0137
vn -0.0766 -0.8874 0.4545
vn -0.5140 -0.5124 0.6879
vn -0.7298 0.0000 0.6837
vn 0.1045 -0.9943 -0.0224
vn -0.6312 -0.7688 0.1029
vn -0.0717 -0.8988 0.4324
vn -0.3467 -0.0013 0.9380
vn -0.0610 -0.9974 0.0396
vn 0.6724 0.7402 0.0102
vn 0.7449 0.6535 -0.1340
vn 0.9704 -0.1987 -0.1370
vn -0.0064 0.9990 0.0441
vn 0.1456 0.9889 -0.0301
vn -0.2623 0.9293 0.2599
vn -0.6312 0.7688 0.1029
vn -0.9917 0.0000 0.1283
vn 0.4738 -0.7978 0.3728
vn 0.6723 -0.7402 0.0102
vn 0.7980 -0.5739 -0.1840
vn 0.9868 -0.0000 -0.1620
vn 0.9209 0.0020 -0.3899
vn 0.5904 0.7929 -0.1509
vn 0.5893 -0.8062 -0.0530
vn -0.1583 -0.9838 -0.0840
vn -0.0639 -0.9977 -0.0210
vn -0.1333 -0.9909 -0.0190
vn 0.6944 -0.7194 -0.0162
vn 0.0177 -0.9987 -0.0468
vn -0.0293 -0.9994 -0.0179
vn 0.6851 -0.7269 -0.0477
vn 0.5851 -0.6905 0.4253
vn 0.6940 -0.0000 0.7200
vn 0.4738 0.7978 0.3728
vn -0.1026 0.9916 -0.0791
vn -0.9756 -0.0024 -0.2197
vn -0.6394 -0.6958 -0.3271
vn -0.8660 -0.0341 -0.4989
vn -0.6451 0.6824 -0.3439
vn -0.6671 0.7264 -0.1655
vn 0.0524 0.9986 -0.0120
vn 0.4804 0.8320 0.2774
vn 0.8432 -0.0000 0.5375
vn 0.6851 0.7269 -0.0477
vn -0.0068 0.9998 -0.0185
vn 0.6944 0.7194 -0.0162
vn 0.9998 -0.0000 -0.0196
vn 0.9977 -0.0000 -0.0685
vn 0.7157 -0.6984 -0.0092
vn 0.9384 -0.3404 -0.0589
vn 0.2522 -0.9555 -0.1533
vn 0.8642 -0.2688 -0.4254
vn -0.0649 -0.8620 -0.5027
vn 0.7617 0.4068 -0.5043
vn -0.3373 -0.1094 -0.9350
vn 0.7855 0.6174 -0.0411
vn 1.0000 -0.0000 0.0075
vn 0.7230 0.6908 0.0067
vn 0.0238 0.9997 -0.0032
vn -0.0099 0.9987 -0.0490
vn -0.6843 0.7292 0.0041
vn -0.9998 -0.0000 0.0204
vn -0.6843 -0.7292 0.0041
vn -0.6700 -0.7245 -0.1619
vn -0.7136 0.6840 -0.1516
vn -0.9848 0.0000 -0.1739
vn -0.7136 -0.6840 -0.1516
vn -0.5619 -0.8167 -0.1312
vn -0.9437 0.0000 -0.3307
vn -1.0000 -0.0012 0.0071
vn -0.3069 -0.6845 -0.6613
vn -0.6951 -0.7189 0.0052
vn -0.6183 -0.7854 -0.0281
vn -0.9998 -0.0000 -0.0221
vn -0.7019 0.6832 -0.2014
vn 0.4249 -0.8025 -0.4189
vn -0.7205 0.6934 0.0083
vn -0.7012 0.7128 -0.0164
vn 0.5239 0.7105 -0.4698
vn -0.2454 0.4685 -0.8487
vn -0.4973 -0.1735 -0.8501
vn 0.7991 -0.1702 -0.5766
vn -0.8075 -0.5869 0.0586
vn -0.2587 -0.9640 -0.0617
vn -0.3765 -0.8107 0.4483
vn -0.1074 -0.6933 0.7126
vn -0.6046 -0.0488 0.7950
vn -0.9677 -0.0402 0.2490
vn -0.8247 0.5561 0.1030
vn -0.2416 0.9687 -0.0572
vn -0.3804 0.7677 0.5157
vn -0.0815 0.6744 0.7339
vn -0.0976 0.0019 0.9952
vn 0.1442 -0.8817 0.4493
vn 0.1434 -0.7242 0.6745
vn 0.3533 0.0034 0.9355
vn 0.6735 -0.7392 -0.0024
vn 0.1640 0.0116 0.9864
vn 0.1824 0.7258 0.6633
vn 0.3098 0.8959 0.3184
vn 0.6560 0.7547 0.0039
vn 0.9996 0.0203 -0.0204
vn 0.6515 0.7451 0.1429
vn 0.0373 0.9992 0.0123
vn 0.6990 0.7128 -0.0580
vn 0.9859 -0.0000 0.1676
vn 0.9959 -0.0000 -0.0906
vn 0.6990 -0.7128 -0.0580
vn 0.5714 -0.8169 0.0784
vn -0.6260 0.7497 0.2144
vn -0.5140 0.5124 0.6879
vn -0.1188 0.4518 0.8842
vn 0.4406 0.5676 0.6955
vn 0.7162 -0.0000 0.6979
vn 0.4406 -0.5677 0.6955
vn -0.0422 0.9990 -0.0156
vn 0.1302 0.9910 0.0321
vn 0.1732 0.9848 0.0145
vn -0.6732 0.7123 -0.1989
vn -0.6426 0.7495 -0.1590
vn -0.9723 0.0000 -0.2339
vn -0.9607 0.0000 -0.2774
vn -0.1637 0.0000 0.9865
# 136 vertex normals

vt 0.0942 0.0703 0.0703
vt 0.0777 0.0620 0.0620
vt 0.0714 0.0591 0.0591
vt 0.1747 0.8646 0.8646
vt 0.1981 0.7955 0.7955
vt 0.1941 0.8662 0.8662
vt 0.1744 0.8814 0.8814
vt 0.2010 0.8829 0.8829
vt 0.1549 0.8663 0.8663
vt 0.2240 0.7080 0.7080
vt 0.2252 0.7278 0.7278
vt 0.1979 0.7192 0.7192
vt 0.2247 0.7985 0.7985
vt 0.2260 0.8685 0.8685
vt 0.2301 0.9797 0.9797
vt 0.2009 0.9734 0.9734
vt 0.1752 0.9704 0.9704
vt 0.2223 0.6604 0.6604
vt 0.1951 0.6692 0.6692
vt 0.1901 0.6179 0.6179
vt 0.1669 0.6299 0.6299
vt 0.2103 0.6069 0.6069
vt 0.0946 0.6006 0.6006
vt 0.0934 0.6616 0.6616
vt 0.0681 0.6023 0.6023
vt 0.1170 0.6123 0.6123
vt 0.1141 0.6628 0.6628
vt 0.1416 0.6196 0.6196
vt 0.1427 0.6704 0.6704
vt 0.1693 0.6755 0.6755
vt 0.0428 0.5010 0.5010
vt 0.0416 0.6013 0.6013
vt 0.0534 0.6646 0.6646
vt 0.0734 0.6638 0.6638
vt 0.0811 0.7170 0.7170
vt 0.0969 0.7178 0.7178
vt 0.0658 0.7197 0.7197
vt 0.0217 0.6152 0.6152
vt 0.0123 0.5833 0.5833
vt 0.0226 0.4805 0.4805
vt 0.0488 0.1553 0.1553
vt 0.0627 0.2886 0.2886
vt 0.0427 0.2896 0.2896
vt 0.0339 0.4243 0.4243
vt 0.0552 0.4355 0.4355
vt 0.0506 0.4883 0.4883
vt 0.0661 0.5022 0.5022
vt 0.0910 0.5027 0.5027
vt 0.1224 0.5811 0.5811
vt 0.1609 0.4844 0.4844
vt 0.1804 0.5806 0.5806
vt 0.1632 0.5811 0.5811
vt 0.1443 0.5808 0.5808
vt 0.1388 0.4844 0.4844
vt 0.1158 0.4849 0.4849
vt 0.0812 0.4897 0.4897
vt 0.0652 0.4888 0.4888
vt 0.0905 0.4385 0.4385
vt 0.1175 0.4312 0.4312
vt 0.1080 0.2900 0.2900
vt 0.0847 0.2891 0.2891
vt 0.0721 0.4380 0.4380
vt 0.0643 0.1533 0.1533
vt 0.0625 0.0781 0.0781
vt 0.0460 0.0640 0.0640
vt 0.0621 0.0679 0.0679
vt 0.0557 0.0630 0.0630
vt 0.0751 0.0649 0.0649
vt 0.0674 0.0615 0.0615
vt 0.0824 0.0767 0.0767
vt 0.0793 0.1523 0.1523
vt 0.0936 0.1523 0.1523
vt 0.1083 0.1533 0.1533
vt 0.1285 0.2925 0.2925
vt 0.1405 0.4297 0.4297
vt 0.1624 0.4292 0.4292
vt 0.1837 0.4302 0.4302
vt 0.1815 0.4849 0.4849
vt 0.1455 0.2969 0.2969
vt 0.1613 0.2974 0.2974
vt 0.1777 0.2959 0.2959
vt 0.1976 0.2915 0.2915
vt 0.2058 0.4316 0.4316
vt 0.2015 0.4868 0.4868
vt 0.1976 0.5835 0.5835
vt 0.1813 0.2778 0.2778
vt 0.1794 0.1479 0.1479
vt 0.1611 0.2793 0.2793
vt 0.1289 0.0674 0.0674
vt 0.1357 0.0210 0.0210
vt 0.1453 0.0659 0.0659
vt 0.1631 0.0571 0.0571
vt 0.1622 0.1514 0.1514
vt 0.1437 0.1533 0.1533
vt 0.1422 0.2788 0.2788
vt 0.1436 0.0215 0.0215
vt 0.1117 0.0684 0.0684
vt 0.1246 0.1538 0.1538
vt 0.0934 0.0195 0.0195
vt 0.1023 0.0161 0.0161
vt 0.1184 0.0156 0.0156
vt 0.0712 0.0200 0.0200
vt 0.0557 0.0234 0.0234
vt 0.0568 0.0176 0.0176
vt 0.0728 0.0093 0.0093
vt 0.0882 0.0132 0.0132
vt 0.1207 0.3701 0.3701
vt 0.1371 0.3506 0.3506
vt 0.1229 0.3774 0.3774
vt 0.1288 0.3350 0.3350
vt 0.1152 0.3350 0.3350
vt 0.1398 0.3350 0.3350
vt 0.1501 0.3584 0.3584
vt 0.1417 0.3701 0.3701
vt 0.1194 0.3862 0.3862
vt 0.1136 0.3774 0.3774
vt 0.1146 0.3691 0.3691
vt 0.1086 0.3682 0.3682
vt 0.0925 0.3516 0.3516
vt 0.1038 0.3730 0.3730
vt 0.1011 0.3359 0.3359
vt 0.0891 0.3354 0.3354
vt 0.0783 0.3594 0.3594
vt 0.0869 0.3721 0.3721
vt 0.1030 0.3799 0.3799
vt 0.1104 0.3843 0.3843
vt 0.0986 0.3887 0.3887
vt 0.1040 0.4014 0.4014
vt 0.1295 0.4961 0.4961
vt 0.0878 0.4712 0.4712
vt 0.1311 0.4819 0.4819
vt 0.1141 0.4243 0.4243
vt 0.0926 0.4614 0.4614
vt 0.0916 0.4248 0.4248
vt 0.0956 0.4707 0.4707
vt 0.1038 0.4692 0.4692
vt 0.1414 0.4668 0.4668
vt 0.1069 0.4624 0.4624
vt 0.1403 0.4448 0.4448
vt 0.1273 0.4331 0.4331
vt 0.0997 0.4604 0.4604
vt 0.1025 0.7994 0.7994
vt 0.1213 0.8687 0.8687
vt 0.0967 0.8727 0.8727
vt 0.0792 0.8026 0.8026
vt 0.0720 0.8741 0.8741
vt 0.0484 0.8715 0.8715
vt 0.0573 0.7966 0.7966
vt 0.0825 0.7390 0.7390
vt 0.0657 0.7324 0.7324
vt 0.0991 0.7327 0.7327
vt 0.1475 0.8828 0.8828
vt 0.1500 0.9725 0.9725
vt 0.1221 0.9788 0.9788
vt 0.0946 0.9847 0.9847
vt 0.0702 0.9868 0.9868
vt 0.0458 0.9833 0.9833
vt 0.0183 0.9760 0.9760
vt 0.1328 0.7983 0.7983
vt 0.1213 0.7322 0.7322
vt 0.1174 0.7107 0.7107
vt 0.1547 0.7960 0.7960
vt 0.1466 0.7212 0.7212
vt 0.1722 0.7205 0.7205
vt 0.1770 0.7961 0.7961
vt 0.1788 0.3887 0.3887
vt 0.1797 0.4141 0.4141
vt 0.1512 0.4063 0.4063
vt 0.1639 0.4341 0.4341
vt 0.1407 0.4385 0.4385
vt 0.1238 0.4233 0.4233
vt 0.1229 0.3984 0.3984
vt 0.1387 0.3779 0.3779
vt 0.1619 0.3740 0.3740
vt 0.0258 0.8662 0.8662
vt 0.0344 0.7939 0.7939
vt 0.0435 0.7319 0.7319
vt 0.0444 0.7166 0.7166
vt 0.0334 0.6689 0.6689
# 179 texture coords

g Stick
usemtl Stick
s 1
f 1/1/1 2/2/2 3/3/3 
s 2
f 4/4/4 5/5/5 6/6/6 
s 3
f 4/4/4 6/6/6 7/7/7 
s 4
f 7/7/7 6/6/6 8/8/8 
s 5
f 7/7/7 9/9/9 4/4/4 
s 6
f 10/10/10 11/11/11 12/12/12 
s 7
f 12/12/12 11/11/11 5/5/5 
s 8
f 5/5/5 11/11/11 13/13/13 
s 9
f 5/5/5 13/13/13 6/6/6 
s 10
f 6/6/6 13/13/13 14/14/14 
s 11
f 8/8/8 6/6/6 14/14/14 
s 12
f 14/14/14 15/15/15 8/8/8 
s 13
f 8/8/8 15/15/15 16/16/16 
s 14
f 17/17/17 8/8/8 16/16/16 
s 15
f 7/7/7 8/8/8 17/17/17 
s 16
f 18/18/18 10/10/10 19/19/19 
s 17
f 20/20/20 18/18/18 19/19/19 
s 18
f 20/20/20 19/19/19 21/21/21 
s 19
f 22/22/22 18/18/18 20/20/20 
s 20
f 23/23/23 24/24/24 25/25/25 
s 21
f 23/23/23 26/26/26 24/24/24 
s 22
f 24/24/24 26/26/26 27/27/27 
s 23
f 26/26/26 28/28/28 27/27/27 
s 24
f 27/27/27 28/28/28 29/29/29 
s 25
f 28/28/28 21/21/21 29/29/29 
s 26
f 29/29/29 21/21/21 30/30/30 
s 27
f 21/21/21 19/19/19 30/30/30 
s 28
f 19/19/19 12/12/12 30/30/30 
s 29
f 19/19/19 10/10/10 12/12/12 
s 30
f 31/31/31 25/25/25 32/32/32 
s 31
f 32/32/32 25/25/25 33/33/33 
s 32
f 33/33/33 25/25/25 34/34/34 
s 33
f 25/25/25 24/24/24 34/34/34 
s 34
f 34/34/34 24/24/24 35/35/35 
s 35
f 35/35/35 24/24/24 36/36/36 
s 36
f 34/34/34 35/35/35 33/33/33 
s 37
f 33/33/33 35/35/35 37/37/37 
s 38
f 32/32/32 33/33/33 22/38/22 
s 39
f 22/38/22 38/39/38 32/32/32 
s 40
f 38/39/38 31/31/31 32/32/32 
s 41
f 39/40/39 31/31/31 38/39/38 
s 42
f 40/41/40 41/42/41 42/43/42 
s 43
f 42/43/42 41/42/41 43/44/43 
s 44
f 43/44/43 41/42/41 44/45/44 
s 45
f 43/44/43 44/45/44 39/40/39 
s 46
f 39/40/39 44/45/44 45/46/45 
s 47
f 31/31/31 39/40/39 45/46/45 
s 48
f 31/31/31 45/46/45 46/47/46 
s 49
f 46/47/46 25/25/25 31/31/31 
s 50
f 46/47/46 47/48/47 25/25/25 
s 51
f 25/25/25 47/48/47 23/23/23 
s 52
f 26/26/26 23/23/23 48/49/48 
s 53
f 47/48/47 48/49/48 23/23/23 
s 54
f 49/50/49 50/51/50 51/52/51 
s 55
f 52/53/52 49/50/49 51/52/51 
s 56
f 53/54/53 49/50/49 52/53/52 
s 57
f 48/49/48 53/54/53 52/53/52 
s 58
f 54/55/54 53/54/53 48/49/48 
s 59
f 54/55/54 48/49/48 47/48/47 
s 60
f 47/48/47 55/56/55 54/55/54 
s 61
f 46/47/46 55/56/55 47/48/47 
s 62
f 56/57/56 55/56/55 46/47/46 
s 63
f 46/47/46 45/46/45 56/57/56 
s 64
f 57/58/57 54/55/54 55/56/55 
s 65
f 58/59/58 53/54/53 54/55/54 
s 66
f 58/59/58 54/55/54 57/58/57 
s 67
f 59/60/59 58/59/58 57/58/57 
s 68
f 59/60/59 57/58/57 60/61/60 
s 69
f 60/61/60 57/58/57 61/62/61 
s 70
f 57/58/57 55/56/55 61/62/61 
s 71
f 61/62/61 55/56/55 56/57/56 
s 72
f 45/46/45 61/62/61 56/57/56 
s 73
f 44/45/44 61/62/61 45/46/45 
s 74
f 44/45/44 60/61/60 61/62/61 
s 75
f 41/42/41 60/61/60 44/45/44 
s 76
f 62/63/62 60/61/60 41/42/41 
s 77
f 62/63/62 41/42/41 40/41/40 
s 78
f 40/41/40 63/64/63 62/63/62 
s 79
f 64/65/64 63/64/63 40/41/40 
s 80
f 64/65/64 65/66/65 63/64/63 
s 81
f 66/67/66 65/66/65 64/65/64 
s 82
f 67/68/67 65/66/65 68/69/68 
s 83
f 65/66/65 66/67/66 68/69/68 
s 84
f 68/69/68 66/67/66 3/3/3 
s 85
f 3/3/3 2/2/2 68/69/68 
s 86
f 68/69/68 2/2/2 67/68/67 
s 87
f 67/68/67 2/2/2 69/70/69 
s 88
f 67/68/67 69/70/69 65/66/65 
s 89
f 65/66/65 69/70/69 63/64/63 
s 90
f 63/64/63 69/70/69 70/71/70 
s 91
f 63/64/63 70/71/70 62/63/62 
s 92
f 70/71/70 60/61/60 62/63/62 
s 93
f 70/71/70 69/70/69 71/72/71 
s 94
f 69/70/69 72/73/72 71/72/71 
s 95
f 1/1/1 72/73/72 69/70/69 
s 96
f 69/70/69 2/2/2 1/1/1 
s 97
f 70/71/70 71/72/71 60/61/60 
s 98
f 60/61/60 71/72/71 59/60/59 
s 99
f 71/72/71 72/73/72 59/60/59 
s 100
f 59/60/59 72/73/72 73/74/73 
s 101
f 73/74/73 58/59/58 59/60/59 
s 102
f 73/74/73 74/75/74 58/59/58 
s 103
f 74/75/74 53/54/53 58/59/58 
s 104
f 74/75/74 49/50/49 53/54/53 
s 105
f 75/76/75 49/50/49 74/75/74 
s 106
f 75/76/75 76/77/76 49/50/49 
s 107
f 49/50/49 76/77/76 77/78/77 
s 108
f 78/79/78 75/76/75 74/75/74 
s 109
f 78/79/78 74/75/74 73/74/73 
s 110
f 79/80/79 75/76/75 78/79/78 
s 111
f 79/80/79 80/81/80 75/76/75 
s 112
f 75/76/75 80/81/80 76/77/76 
s 113
f 80/81/80 42/82/42 76/77/76 
s 114
f 76/77/76 42/82/42 43/83/43 
s 115
f 76/77/76 43/83/43 77/78/77 
s 116
f 77/78/77 43/83/43 39/84/39 
s 117
f 39/84/39 38/85/38 77/78/77 
s 118
f 77/78/77 38/85/38 50/51/50 
s 119
f 77/78/77 50/51/50 49/50/49 
s 120
f 81/86/81 40/87/40 42/82/42 
s 121
f 80/81/80 81/86/81 42/82/42 
s 122
f 80/81/80 82/88/82 81/86/81 
s 123
f 79/80/79 82/88/82 80/81/80 
s 124
f 83/89/83 84/90/84 85/91/85 
s 125
f 84/90/84 64/92/64 85/91/85 
s 126
f 64/92/64 40/87/40 85/91/85 
s 127
f 85/91/85 40/87/40 86/93/86 
s 128
f 86/93/86 40/87/40 81/86/81 
s 129
f 86/93/86 81/86/81 87/94/87 
s 130
f 87/94/87 81/86/81 82/88/82 
s 131
f 88/95/88 87/94/87 82/88/82 
s 132
f 88/95/88 82/88/82 78/79/78 
s 133
f 78/79/78 82/88/82 79/80/79 
s 134
f 89/96/89 64/92/64 84/90/84 
s 135
f 87/94/87 85/91/85 86/93/86 
s 136
f 83/89/83 85/91/85 87/94/87 
s 137
f 83/89/83 87/94/87 90/97/90 
s 138
f 90/97/90 87/94/87 91/98/91 
s 139
f 91/98/91 87/94/87 88/95/88 
s 140
f 78/79/78 73/74/73 88/95/88 
s 141
f 72/73/72 88/95/88 73/74/73 
s 142
f 91/98/91 88/95/88 72/73/72 
s 143
f 1/1/1 91/98/91 72/73/72 
s 144
f 90/97/90 91/98/91 1/1/1 
s 145
f 92/99/92 90/97/90 1/1/1 
s 146
f 93/100/93 90/97/90 92/99/92 
s 147
f 93/100/93 83/89/83 90/97/90 
s 148
f 94/101/94 83/89/83 93/100/93 
s 149
f 94/101/94 84/90/84 83/89/83 
s 150
f 3/3/3 66/67/66 64/65/64 
s 151
f 64/65/64 95/102/95 3/3/3 
s 152
f 89/103/89 95/102/95 64/65/64 
s 153
f 89/103/89 84/104/84 95/102/95 
s 154
f 84/104/84 94/105/94 95/102/95 
s 155
f 94/105/94 93/106/93 95/102/95 
s 156
f 93/106/93 92/99/92 95/102/95 
s 157
f 95/102/95 92/99/92 3/3/3 
s 158
f 3/3/3 92/99/92 1/1/1 
s 159
f 96/107/96 97/108/97 98/109/98 
s 160
f 50/110/50 97/108/97 96/107/96 
s 161
f 50/110/50 96/107/96 51/111/51 
s 162
f 38/112/38 97/108/97 50/110/50 
s 163
f 22/113/22 97/108/97 38/112/38 
s 164
f 20/114/20 97/108/97 22/113/22 
s 165
f 97/108/97 20/114/20 98/109/98 
s 166
f 98/109/98 20/114/20 99/115/99 
s 167
f 98/109/98 99/115/99 100/116/100 
s 168
f 98/109/98 100/116/100 96/107/96 
s 169
f 96/107/96 100/116/100 101/117/101 
s 170
f 51/111/51 96/107/96 101/117/101 
s 171
f 102/118/102 51/111/51 101/117/101 
s 172
f 103/119/103 102/118/102 104/120/104 
s 173
f 104/120/104 102/118/102 100/116/100 
s 174
f 100/116/100 102/118/102 101/117/101 
s 175
f 52/121/52 51/111/51 102/118/102 
s 176
f 52/121/52 102/118/102 103/119/103 
s 177
f 103/119/103 48/122/48 52/121/52 
s 178
f 48/122/48 103/119/103 26/123/26 
s 179
f 26/123/26 103/119/103 28/124/28 
s 180
f 103/119/103 104/120/104 28/124/28 
s 181
f 28/124/28 104/120/104 105/125/105 
s 182
f 104/120/104 100/116/100 105/125/105 
s 183
f 105/125/105 100/116/100 106/126/106 
s 184
f 100/116/100 99/115/99 106/126/106 
s 185
f 99/115/99 21/127/21 106/126/106 
s 186
f 20/128/20 21/127/21 99/115/99 
s 187
f 28/124/28 105/125/105 21/127/21 
s 188
f 21/127/21 105/125/105 106/126/106 
s 189
f 107/129/107 108/130/108 109/131/109 
s 190
f 37/132/37 110/133/110 107/134/107 
s 191
f 107/134/107 110/133/110 108/130/108 
s 192
f 108/130/108 110/133/110 111/135/111 
s 193
f 109/131/109 108/130/108 111/135/111 
s 194
f 112/136/112 109/131/109 111/135/111 
s 195
f 113/137/113 109/131/109 112/136/112 
s 196
f 114/138/114 113/137/113 112/136/112 
s 197
f 36/139/36 113/137/113 114/138/114 
s 198
f 36/139/36 114/138/114 35/140/35 
s 199
f 35/140/35 114/138/114 115/141/115 
s 200
f 110/133/110 35/140/35 115/141/115 
s 201
f 111/135/111 110/133/110 115/141/115 
s 202
f 115/141/115 114/138/114 111/135/111 
s 203
f 111/135/111 114/138/114 112/136/112 
s 204
f 37/132/37 35/140/35 110/133/110 
s 205
f 116/142/116 117/143/117 118/144/118 
s 206
f 116/142/116 118/144/118 119/145/119 
s 207
f 119/145/119 118/144/118 120/146/120 
s 208
f 121/147/121 119/145/119 120/146/120 
s 209
f 122/148/122 119/145/119 121/147/121 
s 210
f 122/148/122 109/149/109 119/145/119 
s 211
f 107/150/107 109/149/109 122/148/122 
s 212
f 113/151/113 116/142/116 109/149/109 
s 213
f 109/149/109 116/142/116 119/145/119 
s 214
f 123/152/123 17/17/17 124/153/124 
s 215
f 125/154/125 123/152/123 124/153/124 
s 216
f 117/143/117 123/152/123 125/154/125 
s 217
f 117/143/117 125/154/125 118/144/118 
s 218
f 118/144/118 125/154/125 126/155/126 
s 219
f 118/144/118 126/155/126 120/146/120 
s 220
f 120/146/120 126/155/126 127/156/127 
s 221
f 128/157/128 120/146/120 127/156/127 
s 222
f 121/147/121 120/146/120 128/157/128 
s 223
f 15/158/15 121/147/121 128/157/128 
s 224
f 7/7/7 17/17/17 123/152/123 
s 225
f 123/152/123 9/9/9 7/7/7 
s 226
f 123/152/123 117/143/117 9/9/9 
s 227
f 129/159/129 9/9/9 117/143/117 
s 228
f 129/159/129 117/143/117 116/142/116 
s 229
f 116/142/116 130/160/130 129/159/129 
s 230
f 113/151/113 130/160/130 116/142/116 
s 231
f 113/151/113 36/36/36 130/160/130 
s 232
f 130/160/130 36/36/36 131/161/131 
s 233
f 24/24/24 131/161/131 36/36/36 
s 234
f 132/162/132 4/4/4 9/9/9 
s 235
f 132/162/132 9/9/9 129/159/129 
s 236
f 130/160/130 132/162/132 129/159/129 
s 237
f 133/163/133 132/162/132 130/160/130 
s 238
f 131/161/131 133/163/133 130/160/130 
s 239
f 133/163/133 134/164/134 132/162/132 
s 240
f 132/162/132 134/164/134 135/165/135 
s 241
f 27/27/27 131/161/131 24/24/24 
s 242
f 27/27/27 29/29/29 131/161/131 
s 243
f 131/161/131 29/29/29 133/163/133 
s 244
f 29/29/29 30/30/30 133/163/133 
s 245
f 133/163/133 30/30/30 134/164/134 
s 246
f 30/30/30 12/12/12 134/164/134 
s 247
f 12/12/12 5/5/5 134/164/134 
s 248
f 134/164/134 5/5/5 135/165/135 
s 249
f 135/165/135 5/5/5 4/4/4 
s 250
f 135/165/135 4/4/4 132/162/132 
s 251
f 16/166/16 15/167/15 136/168/136 
s 252
f 15/167/15 128/169/128 136/168/136 
s 253
f 128/169/128 127/170/127 136/168/136 
s 254
f 127/170/127 126/171/126 136/168/136 
s 255
f 126/171/126 125/172/125 136/168/136 
s 256
f 125/172/125 124/173/124 136/168/136 
s 257
f 124/173/124 17/174/17 136/168/136 
s 258
f 17/174/17 16/166/16 136/168/136 
s 259
f 14/175/14 121/147/121 15/158/15 
s 260
f 14/175/14 122/148/122 121/147/121 
s 261
f 13/176/13 122/148/122 14/175/14 
s 262
f 11/177/11 122/148/122 13/176/13 
s 263
f 107/150/107 122/148/122 11/177/11 
s 264
f 11/177/11 37/37/37 107/150/107 
s 265
f 10/178/10 37/37/37 11/177/11 
s 266
f 10/178/10 33/33/33 37/37/37 
s 267
f 18/179/18 33/33/33 10/178/10 
s 268
f 22/38/22 33/33/33 18/179/18 
# 0 polygons - 268 triangles

